<svg width="29" height="34" viewBox="0 0 29 34" fill="none" xmlns="http://www.w3.org/2000/svg">
<path d="M14.5 17C19.0766 17 22.7857 13.1949 22.7857 8.5C22.7857 3.80508 19.0766 0 14.5 0C9.92344 0 6.21429 3.80508 6.21429 8.5C6.21429 13.1949 9.92344 17 14.5 17ZM20.3 19.125H19.219C17.7819 19.8023 16.183 20.1875 14.5 20.1875C12.817 20.1875 11.2246 19.8023 9.78103 19.125H8.7C3.89687 19.125 0 23.1227 0 28.05V30.8125C0 32.5723 1.39174 34 3.10714 34H25.8929C27.6083 34 29 32.5723 29 30.8125V28.05C29 23.1227 25.1031 19.125 20.3 19.125Z" fill="#1E1E1E"/>
</svg>
